<svg xmlns="http://www.w3.org/2000/svg" width="920" height="420" viewBox="0 0 920 420">
  <rect width="100%" height="100%" fill="#f5f9fc"/>
  <text x="24" y="36" font-size="20" font-family="system-ui,sans-serif" fill="#1d1d1f" font-weight="600">Toy sales dashboard — wireframe</text>
  <text x="24" y="58" font-size="13" font-family="system-ui,sans-serif" fill="#6e6e73">Figma / handoff spec (vector). KPI strip + trend + SKU pareto.</text>
  <rect x="20" y="80" width="200" height="72" rx="12" fill="#ffffff" stroke="#e2e8f0"/>
  <rect x="236" y="80" width="200" height="72" rx="12" fill="#ffffff" stroke="#e2e8f0"/>
  <rect x="452" y="80" width="200" height="72" rx="12" fill="#ffffff" stroke="#e2e8f0"/>
  <rect x="20" y="170" width="560" height="220" rx="14" fill="#ffffff" stroke="#e2e8f0"/>
  <rect x="600" y="170" width="300" height="220" rx="14" fill="#ffffff" stroke="#e2e8f0"/>
  <text x="36" y="118" font-size="12" fill="#6e6e73" font-family="system-ui,sans-serif">KPI: Revenue</text>
  <text x="252" y="118" font-size="12" fill="#6e6e73" font-family="system-ui,sans-serif">KPI: Profit</text>
  <text x="468" y="118" font-size="12" fill="#6e6e73" font-family="system-ui,sans-serif">KPI: Top region</text>
  <text x="40" y="200" font-size="13" fill="#2b7fd4" font-family="system-ui,sans-serif" font-weight="600">Main: Revenue trend</text>
  <text x="620" y="200" font-size="13" fill="#2b7fd4" font-family="system-ui,sans-serif" font-weight="600">Pareto: SKU profit</text>
  <line x1="48" y1="340" x2="520" y2="280" stroke="#2b7fd4" stroke-width="3" stroke-linecap="round"/>
  <rect x="640" y="230" width="28" height="120" rx="4" fill="#2b7fd4" opacity="0.85"/>
  <rect x="690" y="260" width="28" height="90" rx="4" fill="#2b7fd4" opacity="0.65"/>
  <rect x="740" y="290" width="28" height="60" rx="4" fill="#2b7fd4" opacity="0.45"/>
</svg>